<mxfile host="65bd71144e">
    <diagram id="wHjX4IqcW41R3f-hblLL" name="Raise PR">
        <mxGraphModel dx="1327" dy="943" grid="1" gridSize="10" guides="1" tooltips="1" connect="1" arrows="1" fold="1" page="1" pageScale="1" pageWidth="827" pageHeight="1169" math="0" shadow="0">
            <root>
                <mxCell id="0"/>
                <mxCell id="1" parent="0"/>
                <mxCell id="2" value="" style="ellipse;whiteSpace=wrap;html=1;aspect=fixed;fillColor=#000000;aspect=fixed;" vertex="1" parent="1">
                    <mxGeometry x="160" y="100" width="30" height="30" as="geometry"/>
                </mxCell>
                <mxCell id="3" value="PR Raised" style="rounded=1;whiteSpace=wrap;html=1;strokeWidth=2;arcSize=37" vertex="1" parent="1">
                    <mxGeometry x="130" y="200" width="90" height="40" as="geometry"/>
                </mxCell>
                <mxCell id="4" value="" style="edgeStyle=elbowEdgeStyle;html=1;labelBackgroundColor=none;rounded=1;elbow=horizontal;endArrow=classic;endFill=1;align=left;exitX=0.5;exitY=1;exitDx=0;exitDy=0;entryX=0.5;entryY=0;entryDx=0;entryDy=0;" edge="1" parent="1" source="2" target="3">
                    <mxGeometry width="80" height="80" relative="1" as="geometry">
                        <mxPoint x="291" y="530" as="sourcePoint"/>
                        <mxPoint x="371" y="450" as="targetPoint"/>
                    </mxGeometry>
                </mxCell>
                <mxCell id="5" value="" style="rhombus;html=1;strokeWidth=2;aspect=fixed;" vertex="1" parent="1">
                    <mxGeometry x="160" y="300" width="30" height="30" as="geometry"/>
                </mxCell>
                <mxCell id="9" value="" style="edgeStyle=elbowEdgeStyle;html=1;labelBackgroundColor=none;rounded=1;elbow=horizontal;endArrow=classic;endFill=1;align=left;exitX=0.5;exitY=1;exitDx=0;exitDy=0;entryX=0.5;entryY=0;entryDx=0;entryDy=0;" edge="1" parent="1" source="3" target="5">
                    <mxGeometry width="80" height="80" relative="1" as="geometry">
                        <mxPoint x="331" y="480" as="sourcePoint"/>
                        <mxPoint x="411" y="400" as="targetPoint"/>
                    </mxGeometry>
                </mxCell>
                <mxCell id="0.5" value="Best viewed with the &lt;a href=&quot;https://github.com/ariel-bentu/tam-drawio&quot;&gt;TAM plugin&lt;/a&gt;" style="text;html=1;shape=tamPluginMissing;" vertex="1" connectable="0" parent="1">
                    <mxGeometry x="385" y="1210" width="200" height="25" as="geometry"/>
                </mxCell>
                <mxCell id="13" value="PR Signal Received" style="rounded=1;whiteSpace=wrap;html=1;strokeWidth=2;arcSize=37" vertex="1" parent="1">
                    <mxGeometry x="360" y="295" width="90" height="40" as="geometry"/>
                </mxCell>
                <mxCell id="14" value="" style="edgeStyle=elbowEdgeStyle;html=1;labelBackgroundColor=none;rounded=1;elbow=horizontal;endArrow=classic;endFill=1;align=left;exitX=1;exitY=0.5;exitDx=0;exitDy=0;entryX=0;entryY=0.5;entryDx=0;entryDy=0;" edge="1" parent="1" source="5" target="13">
                    <mxGeometry width="80" height="80" relative="1" as="geometry">
                        <mxPoint x="451" y="470" as="sourcePoint"/>
                        <mxPoint x="531" y="390" as="targetPoint"/>
                    </mxGeometry>
                </mxCell>
                <mxCell id="16" value="" style="edgeStyle=elbowEdgeStyle;html=1;labelBackgroundColor=none;rounded=1;elbow=horizontal;endArrow=classic;endFill=1;align=left;exitX=0.5;exitY=1;exitDx=0;exitDy=0;" edge="1" parent="1" source="13" target="18">
                    <mxGeometry width="80" height="80" relative="1" as="geometry">
                        <mxPoint x="450" y="580" as="sourcePoint"/>
                        <mxPoint x="395" y="400" as="targetPoint"/>
                    </mxGeometry>
                </mxCell>
                <mxCell id="17" value="Send Ack" style="rounded=1;whiteSpace=wrap;html=1;strokeWidth=2;arcSize=37" vertex="1" parent="1">
                    <mxGeometry x="260" y="470" width="90" height="40" as="geometry"/>
                </mxCell>
                <mxCell id="18" value="" style="line;strokeWidth=13;html=1;fillColor=default;" vertex="1" parent="1">
                    <mxGeometry x="350" y="390" width="120" height="10" as="geometry"/>
                </mxCell>
                <mxCell id="19" value="" style="edgeStyle=elbowEdgeStyle;html=1;labelBackgroundColor=none;rounded=1;elbow=horizontal;endArrow=classic;endFill=1;align=left;exitX=0.25;exitY=0.5;exitDx=0;exitDy=0;exitPerimeter=0;" edge="1" parent="1" source="18" target="17">
                    <mxGeometry width="80" height="80" relative="1" as="geometry">
                        <mxPoint x="450" y="580" as="sourcePoint"/>
                        <mxPoint x="530" y="500" as="targetPoint"/>
                    </mxGeometry>
                </mxCell>
                <mxCell id="21" value="Start Build" style="rounded=1;whiteSpace=wrap;html=1;strokeWidth=2;arcSize=37" vertex="1" parent="1">
                    <mxGeometry x="470" y="470" width="90" height="40" as="geometry"/>
                </mxCell>
                <mxCell id="22" value="" style="edgeStyle=elbowEdgeStyle;html=1;labelBackgroundColor=none;rounded=1;elbow=horizontal;endArrow=classic;endFill=1;align=left;exitX=0.75;exitY=0.5;exitDx=0;exitDy=0;exitPerimeter=0;" edge="1" parent="1" source="18" target="21">
                    <mxGeometry width="80" height="80" relative="1" as="geometry">
                        <mxPoint x="540" y="570" as="sourcePoint"/>
                        <mxPoint x="620" y="490" as="targetPoint"/>
                    </mxGeometry>
                </mxCell>
                <mxCell id="23" value="" style="edgeStyle=elbowEdgeStyle;html=1;labelBackgroundColor=none;rounded=1;elbow=horizontal;endArrow=classic;endFill=1;align=left;exitX=0.5;exitY=1;exitDx=0;exitDy=0;" edge="1" parent="1" source="21" target="24">
                    <mxGeometry width="80" height="80" relative="1" as="geometry">
                        <mxPoint x="560" y="590" as="sourcePoint"/>
                        <mxPoint x="515" y="560" as="targetPoint"/>
                    </mxGeometry>
                </mxCell>
                <mxCell id="24" value="Clone Repo" style="rounded=1;whiteSpace=wrap;html=1;strokeWidth=2;arcSize=37" vertex="1" parent="1">
                    <mxGeometry x="470" y="560" width="90" height="40" as="geometry"/>
                </mxCell>
                <mxCell id="30" value="Hook Exists?" style="text;html=1;align=center;verticalAlign=middle;resizable=0;points=[];autosize=1;strokeColor=none;fillColor=none;" vertex="1" parent="1">
                    <mxGeometry x="80" y="290" width="90" height="30" as="geometry"/>
                </mxCell>
                <mxCell id="34" value="" style="rhombus;html=1;strokeWidth=2;aspect=fixed;" vertex="1" parent="1">
                    <mxGeometry x="500" y="650" width="30" height="30" as="geometry"/>
                </mxCell>
                <mxCell id="35" value="" style="edgeStyle=elbowEdgeStyle;html=1;labelBackgroundColor=none;rounded=1;elbow=horizontal;endArrow=classic;endFill=1;align=left;exitX=0.5;exitY=1;exitDx=0;exitDy=0;entryX=0.5;entryY=0;entryDx=0;entryDy=0;" edge="1" parent="1" source="24" target="34">
                    <mxGeometry width="80" height="80" relative="1" as="geometry">
                        <mxPoint x="559" y="740" as="sourcePoint"/>
                        <mxPoint x="639" y="660" as="targetPoint"/>
                    </mxGeometry>
                </mxCell>
                <mxCell id="36" value="pipelinefile exists?" style="text;html=1;align=center;verticalAlign=middle;resizable=0;points=[];autosize=1;strokeColor=none;fillColor=none;" vertex="1" parent="1">
                    <mxGeometry x="380" y="650" width="120" height="30" as="geometry"/>
                </mxCell>
                <mxCell id="37" value="" style="shape=sumEllipse;perimeter=ellipsePerimeter;whiteSpace=wrap;html=1;backgroundOutline=1;strokeWidth=2;aspect=fixed;" vertex="1" parent="1">
                    <mxGeometry x="290" y="565" width="30" height="30" as="geometry"/>
                </mxCell>
                <mxCell id="39" value="" style="edgeStyle=orthogonalEdgeStyle;rounded=1;orthogonalLoop=1;jettySize=auto;html=1;exitX=0.5;exitY=1;exitDx=0;exitDy=0;entryX=0.5;entryY=0;entryDx=0;entryDy=0;startArrow=none;startFill=0;endArrow=classic;endFill=1;startSize=6;endSize=6;align=center;fontSize=12;labelBackgroundColor=none;" edge="1" parent="1" source="17" target="37">
                    <mxGeometry width="40" height="40" relative="1" as="geometry">
                        <mxPoint x="579" y="620" as="sourcePoint"/>
                        <mxPoint x="619" y="580" as="targetPoint"/>
                    </mxGeometry>
                </mxCell>
                <mxCell id="40" value="" style="shape=sumEllipse;perimeter=ellipsePerimeter;whiteSpace=wrap;html=1;backgroundOutline=1;strokeWidth=2;aspect=fixed;" vertex="1" parent="1">
                    <mxGeometry x="160" y="400" width="30" height="30" as="geometry"/>
                </mxCell>
                <mxCell id="41" value="" style="edgeStyle=orthogonalEdgeStyle;rounded=1;orthogonalLoop=1;jettySize=auto;html=1;exitX=0.5;exitY=1;exitDx=0;exitDy=0;entryX=0.5;entryY=0;entryDx=0;entryDy=0;startArrow=none;startFill=0;endArrow=classic;endFill=1;startSize=6;endSize=6;align=center;fontSize=12;labelBackgroundColor=none;" edge="1" parent="1" source="5" target="40">
                    <mxGeometry width="40" height="40" relative="1" as="geometry">
                        <mxPoint x="580" y="510" as="sourcePoint"/>
                        <mxPoint x="620" y="470" as="targetPoint"/>
                    </mxGeometry>
                </mxCell>
                <mxCell id="42" value="" style="edgeStyle=orthogonalEdgeStyle;rounded=1;orthogonalLoop=1;jettySize=auto;html=1;exitX=0.5;exitY=1;exitDx=0;exitDy=0;startArrow=none;startFill=0;endArrow=classic;endFill=1;startSize=6;endSize=6;align=center;fontSize=12;labelBackgroundColor=none;entryX=0.5;entryY=0;entryDx=0;entryDy=0;" edge="1" parent="1" source="34" target="43">
                    <mxGeometry width="40" height="40" relative="1" as="geometry">
                        <mxPoint x="579" y="600" as="sourcePoint"/>
                        <mxPoint x="515" y="760" as="targetPoint"/>
                    </mxGeometry>
                </mxCell>
                <mxCell id="43" value="" style="shape=sumEllipse;perimeter=ellipsePerimeter;whiteSpace=wrap;html=1;backgroundOutline=1;strokeWidth=2;aspect=fixed;" vertex="1" parent="1">
                    <mxGeometry x="500" y="740" width="30" height="30" as="geometry"/>
                </mxCell>
                <mxCell id="44" value="yes" style="text;html=1;align=center;verticalAlign=middle;resizable=0;points=[];autosize=1;strokeColor=none;fillColor=none;" vertex="1" parent="1">
                    <mxGeometry x="220" y="288" width="40" height="30" as="geometry"/>
                </mxCell>
                <mxCell id="45" value="no" style="text;html=1;align=center;verticalAlign=middle;resizable=0;points=[];autosize=1;strokeColor=none;fillColor=none;" vertex="1" parent="1">
                    <mxGeometry x="140" y="338" width="40" height="30" as="geometry"/>
                </mxCell>
                <mxCell id="46" value="no" style="text;html=1;align=center;verticalAlign=middle;resizable=0;points=[];autosize=1;strokeColor=none;fillColor=none;" vertex="1" parent="1">
                    <mxGeometry x="479" y="700" width="40" height="30" as="geometry"/>
                </mxCell>
                <mxCell id="48" value="" style="edgeStyle=orthogonalEdgeStyle;rounded=1;orthogonalLoop=1;jettySize=auto;html=1;exitX=1;exitY=0.5;exitDx=0;exitDy=0;startArrow=none;startFill=0;endArrow=classic;endFill=1;startSize=6;endSize=6;align=center;fontSize=12;labelBackgroundColor=none;entryX=0.5;entryY=0;entryDx=0;entryDy=0;" edge="1" parent="1" source="34" target="50">
                    <mxGeometry width="40" height="40" relative="1" as="geometry">
                        <mxPoint x="679" y="610" as="sourcePoint"/>
                        <mxPoint x="649" y="750" as="targetPoint"/>
                    </mxGeometry>
                </mxCell>
                <mxCell id="49" value="yes" style="text;html=1;align=center;verticalAlign=middle;resizable=0;points=[];autosize=1;strokeColor=none;fillColor=none;" vertex="1" parent="1">
                    <mxGeometry x="549" y="638" width="40" height="30" as="geometry"/>
                </mxCell>
                <mxCell id="50" value="Setup Pipeline" style="rounded=1;whiteSpace=wrap;html=1;strokeWidth=2;arcSize=37" vertex="1" parent="1">
                    <mxGeometry x="661" y="750" width="90" height="40" as="geometry"/>
                </mxCell>
                <mxCell id="51" value="" style="rhombus;html=1;strokeWidth=2;aspect=fixed;" vertex="1" parent="1">
                    <mxGeometry x="514" y="960" width="30" height="30" as="geometry"/>
                </mxCell>
                <mxCell id="54" value="In Progress Status to VCS" style="rounded=1;whiteSpace=wrap;html=1;strokeWidth=2;arcSize=37" vertex="1" parent="1">
                    <mxGeometry x="634" y="950" width="90" height="40" as="geometry"/>
                </mxCell>
                <mxCell id="56" value="" style="edgeStyle=orthogonalEdgeStyle;rounded=1;orthogonalLoop=1;jettySize=auto;html=1;exitX=0.5;exitY=1;exitDx=0;exitDy=0;entryX=0.5;entryY=0;entryDx=0;entryDy=0;startArrow=none;startFill=0;endArrow=classic;endFill=1;startSize=6;endSize=6;align=center;fontSize=12;labelBackgroundColor=none;" edge="1" parent="1" source="51" target="71">
                    <mxGeometry width="40" height="40" relative="1" as="geometry">
                        <mxPoint x="464" y="1080" as="sourcePoint"/>
                        <mxPoint x="529" y="1050" as="targetPoint"/>
                    </mxGeometry>
                </mxCell>
                <mxCell id="57" value="Jobs Finished?" style="text;html=1;align=center;verticalAlign=middle;resizable=0;points=[];autosize=1;strokeColor=none;fillColor=none;" vertex="1" parent="1">
                    <mxGeometry x="414" y="960" width="100" height="30" as="geometry"/>
                </mxCell>
                <mxCell id="58" value="yes" style="text;html=1;align=center;verticalAlign=middle;resizable=0;points=[];autosize=1;strokeColor=none;fillColor=none;" vertex="1" parent="1">
                    <mxGeometry x="494" y="998" width="40" height="30" as="geometry"/>
                </mxCell>
                <mxCell id="60" value="" style="edgeStyle=orthogonalEdgeStyle;rounded=1;orthogonalLoop=1;jettySize=auto;html=1;exitX=1;exitY=0;exitDx=0;exitDy=0;entryX=0.5;entryY=0;entryDx=0;entryDy=0;startArrow=none;startFill=0;endArrow=classic;endFill=1;startSize=6;endSize=6;align=center;fontSize=12;labelBackgroundColor=none;" edge="1" parent="1" source="51" target="54">
                    <mxGeometry width="40" height="40" relative="1" as="geometry">
                        <mxPoint x="464" y="1080" as="sourcePoint"/>
                        <mxPoint x="504" y="1040" as="targetPoint"/>
                    </mxGeometry>
                </mxCell>
                <mxCell id="61" value="no" style="text;html=1;align=center;verticalAlign=middle;resizable=0;points=[];autosize=1;strokeColor=none;fillColor=none;" vertex="1" parent="1">
                    <mxGeometry x="544" y="940" width="40" height="30" as="geometry"/>
                </mxCell>
                <mxCell id="62" value="" style="edgeStyle=orthogonalEdgeStyle;rounded=1;orthogonalLoop=1;jettySize=auto;html=1;exitX=0.5;exitY=1;exitDx=0;exitDy=0;entryX=1;entryY=1;entryDx=0;entryDy=0;startArrow=none;startFill=0;endArrow=classic;endFill=1;startSize=6;endSize=6;align=center;fontSize=12;labelBackgroundColor=none;" edge="1" parent="1" source="54" target="51">
                    <mxGeometry width="40" height="40" relative="1" as="geometry">
                        <mxPoint x="464" y="1080" as="sourcePoint"/>
                        <mxPoint x="504" y="1040" as="targetPoint"/>
                    </mxGeometry>
                </mxCell>
                <mxCell id="63" value="" style="line;strokeWidth=13;html=1;fillColor=default;" vertex="1" parent="1">
                    <mxGeometry x="650" y="845" width="120" height="10" as="geometry"/>
                </mxCell>
                <mxCell id="64" value="" style="edgeStyle=orthogonalEdgeStyle;rounded=1;orthogonalLoop=1;jettySize=auto;html=1;exitX=0.5;exitY=1;exitDx=0;exitDy=0;entryX=0.458;entryY=0.1;entryDx=0;entryDy=0;startArrow=none;startFill=0;endArrow=classic;endFill=1;startSize=6;endSize=6;align=center;fontSize=12;labelBackgroundColor=none;entryPerimeter=0;" edge="1" parent="1" source="50" target="63">
                    <mxGeometry width="40" height="40" relative="1" as="geometry">
                        <mxPoint x="661" y="865" as="sourcePoint"/>
                        <mxPoint x="701" y="825" as="targetPoint"/>
                    </mxGeometry>
                </mxCell>
                <mxCell id="65" value="Run Pipeline" style="rounded=1;whiteSpace=wrap;html=1;strokeWidth=2;arcSize=37" vertex="1" parent="1">
                    <mxGeometry x="800" y="950" width="90" height="40" as="geometry"/>
                </mxCell>
                <mxCell id="68" value="" style="edgeStyle=elbowEdgeStyle;html=1;labelBackgroundColor=none;rounded=1;elbow=vertical;endArrow=classic;endFill=1;align=center;entryX=0.5;entryY=0;entryDx=0;entryDy=0;exitX=0.75;exitY=0.5;exitDx=0;exitDy=0;exitPerimeter=0;" edge="1" parent="1" source="63" target="65">
                    <mxGeometry width="80" height="80" relative="1" as="geometry">
                        <mxPoint x="549" y="950" as="sourcePoint"/>
                        <mxPoint x="629" y="870" as="targetPoint"/>
                    </mxGeometry>
                </mxCell>
                <mxCell id="69" value="" style="edgeStyle=elbowEdgeStyle;html=1;labelBackgroundColor=none;rounded=1;elbow=vertical;endArrow=classic;endFill=1;align=center;exitX=0.25;exitY=0.5;exitDx=0;exitDy=0;exitPerimeter=0;" edge="1" parent="1" source="63" target="51">
                    <mxGeometry width="80" height="80" relative="1" as="geometry">
                        <mxPoint x="550" y="850" as="sourcePoint"/>
                        <mxPoint x="630" y="770" as="targetPoint"/>
                    </mxGeometry>
                </mxCell>
                <mxCell id="71" value="Result (Success/Failure) to VCS" style="rounded=1;whiteSpace=wrap;html=1;strokeWidth=2;arcSize=37" vertex="1" parent="1">
                    <mxGeometry x="471" y="1050" width="116" height="60" as="geometry"/>
                </mxCell>
                <mxCell id="73" value="" style="shape=sumEllipse;perimeter=ellipsePerimeter;whiteSpace=wrap;html=1;backgroundOutline=1;strokeWidth=2;aspect=fixed;" vertex="1" parent="1">
                    <mxGeometry x="514" y="1150" width="30" height="30" as="geometry"/>
                </mxCell>
                <mxCell id="75" value="" style="edgeStyle=orthogonalEdgeStyle;rounded=1;orthogonalLoop=1;jettySize=auto;html=1;exitX=0.5;exitY=1;exitDx=0;exitDy=0;entryX=0.5;entryY=0;entryDx=0;entryDy=0;startArrow=none;startFill=0;endArrow=classic;endFill=1;startSize=6;endSize=6;align=center;fontSize=12;labelBackgroundColor=none;" edge="1" parent="1" source="71" target="73">
                    <mxGeometry width="40" height="40" relative="1" as="geometry">
                        <mxPoint x="630" y="860" as="sourcePoint"/>
                        <mxPoint x="670" y="820" as="targetPoint"/>
                    </mxGeometry>
                </mxCell>
                <mxCell id="76" value="" style="edgeStyle=orthogonalEdgeStyle;rounded=1;orthogonalLoop=1;jettySize=auto;html=1;exitX=0.5;exitY=1;exitDx=0;exitDy=0;startArrow=none;startFill=0;endArrow=classic;endFill=1;startSize=6;endSize=6;align=center;fontSize=12;labelBackgroundColor=none;" edge="1" parent="1" source="65" target="77">
                    <mxGeometry width="40" height="40" relative="1" as="geometry">
                        <mxPoint x="620" y="980" as="sourcePoint"/>
                        <mxPoint x="840" y="1040" as="targetPoint"/>
                    </mxGeometry>
                </mxCell>
                <mxCell id="77" value="" style="shape=endactivity;strokeWidth=2;fillColor=#000000;aspect=fixed;" vertex="1" parent="1">
                    <mxGeometry x="830" y="1040" width="30" height="30" as="geometry"/>
                </mxCell>
            </root>
        </mxGraphModel>
    </diagram>
</mxfile>